<?xml version="1.0" standalone="no"?><!DOCTYPE svg PUBLIC "-//W3C//DTD SVG 1.1//EN" "http://www.w3.org/Graphics/SVG/1.1/DTD/svg11.dtd"><svg t="1567505958812" class="icon" viewBox="0 0 1024 1024" version="1.1" xmlns="http://www.w3.org/2000/svg" p-id="2322" xmlns:xlink="http://www.w3.org/1999/xlink" width="200" height="200"><defs><style type="text/css"></style></defs><path d="M95.423909 92.141432m95.523378 0l642.07227 0q95.523378 0 95.523378 95.523378l0 642.072271q0 95.523378-95.523378 95.523377l-642.07227 0q-95.523378 0-95.523378-95.523377l0-642.072271q0-95.523378 95.523378-95.523378Z" fill="#F8FCFD" p-id="2323"></path><path d="M833.052713 935.903639H190.947287a106.266028 106.266028 0 0 1-106.100246-106.100246V187.631654a106.100246 106.100246 0 0 1 106.100246-106.100246h642.105426a106.100246 106.100246 0 0 1 106.100246 106.100246v642.105427a106.266028 106.266028 0 0 1-106.100246 106.166558zM190.947287 102.784613A85.012822 85.012822 0 0 0 106.100246 187.631654v642.105427a84.979666 84.979666 0 0 0 84.880197 84.880197h642.07227a84.979666 84.979666 0 0 0 84.880197-84.880197V187.631654A85.012822 85.012822 0 0 0 833.052713 102.784613z" fill="#53C1E5" p-id="2324"></path><path d="M823.371066 551.522342l-65.848465-109.846911a21.783707 21.783707 0 0 0-18.998576-10.576869H639.585546v-88.030048a21.783707 21.783707 0 0 0-22.181583-21.816863H232.492164a21.717394 21.717394 0 0 0-21.816863 21.816863v308.121746a21.684238 21.684238 0 0 0 21.816863 21.883176h33.156327a88.030048 88.030048 0 1 0 176.060096 0h154.243233a88.030048 88.030048 0 1 0 176.060096 0h33.156326a21.717394 21.717394 0 0 0 21.85002-21.816863v-88.096361a26.525062 26.525062 0 0 0-3.647196-11.63787z m-470.090403 165.516384A44.031602 44.031602 0 1 1 397.312265 673.073436a44.031602 44.031602 0 0 1-44.031602 43.96529zM726.123559 474.765445l56.001036 93.666623h-142.572205v-93.666623z m-42.60588 242.273281A44.031602 44.031602 0 0 1 639.585546 673.073436v-0.331563a44.031602 44.031602 0 1 1 43.998446 44.363165z" fill="#53C1E5" p-id="2325"></path></svg>