<?xml version="1.0" standalone="no"?><!DOCTYPE svg PUBLIC "-//W3C//DTD SVG 1.1//EN" "http://www.w3.org/Graphics/SVG/1.1/DTD/svg11.dtd"><svg t="1567505986245" class="icon" viewBox="0 0 1024 1024" version="1.1" xmlns="http://www.w3.org/2000/svg" p-id="3018" xmlns:xlink="http://www.w3.org/1999/xlink" width="200" height="200"><defs><style type="text/css"></style></defs><path d="M512 505.202953m-425.859863 0a425.859863 425.859863 0 1 0 851.719726 0 425.859863 425.859863 0 1 0-851.719726 0Z" fill="#DBDBDB" p-id="3019"></path><path d="M512 944.955317c-242.538531 0-439.818676-197.246989-439.818676-439.752364A440.282865 440.282865 0 0 1 512 65.384277c242.505375 0 439.818676 197.280145 439.818676 439.818676S754.505375 944.955317 512 944.955317z m0-851.719726a411.901049 411.901049 0 1 0 411.901049 411.967362A412.365238 412.365238 0 0 0 512 93.301904z" fill="#BBBABA" p-id="3020"></path><path d="M759.578293 544.4932l-48.10983 58.686699 19.363295 1.757285s-60.410828 49.270302-114.986142 52.221215c-53.9785 2.917757-80.370936-69.230411-80.370937-69.23041v-120.854812h72.744982v-36.47196h-69.230411v-48.043517A76.955835 76.955835 0 0 0 513.923067 232.956353h-1.757285a76.955835 76.955835 0 0 0-25.231965 149.601347v48.10983h-69.396192v36.47196h72.744981v120.854811s-26.525062 72.148167-80.96775 69.230411c-55.138972-2.950913-115.582956-52.221215-115.582956-52.221215l19.363295-1.757285-48.706644-58.686699-16.412382 70.987696 21.12058-4.675042s41.644347 72.744981 104.44243 100.894703c62.764927 28.779692 126.723481 63.958555 139.057635 65.715839h0.563657c12.930967-1.757285 76.259552-36.936148 138.460822-65.715839 61.604455-28.149722 103.281958-100.894703 103.281958-100.894703l21.12058 4.675042z m-246.417822-192.306696h-1.160471a41.942754 41.942754 0 0 1 0-83.885507h1.923067a41.942754 41.942754 0 0 1 0 83.885507z" fill="#040000" p-id="3021"></path></svg>