<?xml version="1.0" standalone="no"?><!DOCTYPE svg PUBLIC "-//W3C//DTD SVG 1.1//EN" "http://www.w3.org/Graphics/SVG/1.1/DTD/svg11.dtd"><svg t="1567505977469" class="icon" viewBox="0 0 1024 1024" version="1.1" xmlns="http://www.w3.org/2000/svg" p-id="2788" xmlns:xlink="http://www.w3.org/1999/xlink" width="200" height="200"><defs><style type="text/css"></style></defs><path d="M512.961533 501.555757m-420.654319 0a420.654319 420.654319 0 1 0 841.308639 0 420.654319 420.654319 0 1 0-841.308639 0Z" fill="#6ABE87" p-id="2789"></path><path d="M752.648621 539.61922l-46.418858 56.796788 18.733325 1.724129S666.442171 645.852092 613.392048 648.703536c-52.287528 2.851444-77.851056-67.042093-77.851056-67.042093v-117.041834h70.457195v-35.212019h-66.909468v-46.418858a74.535423 74.535423 0 0 0-24.436213-144.893149h-1.690973a74.535423 74.535423 0 0 0-24.436212 144.893149v46.418858h-67.042093v35.212019h70.457194v117.041834s-25.563528 69.893537-78.414713 67.042093C360.110866 645.852092 301.722575 598.140137 301.722575 598.140137l18.733324-1.724129-47.247765-56.796788-15.915037 68.733066 20.457453-4.542417s40.35125 70.457195 101.126797 97.711696c60.775547 27.851315 122.67841 61.936019 134.647844 63.660147h0.563658c12.499935-1.724129 73.872296-35.808833 134.084186-63.660147 59.681388-27.254501 99.999482-97.711695 99.999482-97.711696l20.457453 4.542417z m-238.725554-186.338557h-1.127315a40.649657 40.649657 0 0 1 0-81.266157h1.690973a40.649657 40.649657 0 0 1 0 81.266157z" fill="#FFFFFF" p-id="2790"></path></svg>