<?xml version="1.0" standalone="no"?><!DOCTYPE svg PUBLIC "-//W3C//DTD SVG 1.1//EN" "http://www.w3.org/Graphics/SVG/1.1/DTD/svg11.dtd"><svg t="1567505973367" class="icon" viewBox="0 0 1024 1024" version="1.1" xmlns="http://www.w3.org/2000/svg" p-id="2670" xmlns:xlink="http://www.w3.org/1999/xlink" width="200" height="200"><defs><style type="text/css"></style></defs><path d="M107.625437 104.508742m92.70509 0l623.30579 0q92.70509 0 92.70509 92.70509l0 623.30579q0 92.70509-92.70509 92.70509l-623.30579 0q-92.70509 0-92.70509-92.70509l0-623.30579q0-92.70509 92.70509-92.70509Z" fill="#F8F9FC" p-id="2671"></path><path d="M823.636317 923.569486h-623.338946a103.149333 103.149333 0 0 1-103.049864-103.049864v-623.338946a103.149333 103.149333 0 0 1 103.116176-102.983551h623.338946a103.149333 103.149333 0 0 1 103.049864 103.049864v623.338945a103.149333 103.149333 0 0 1-103.116176 102.983552zM200.363683 114.853516a82.492941 82.492941 0 0 0-82.393472 82.393473v623.338945a82.492941 82.492941 0 0 0 82.393472 82.393473h623.338946a82.492941 82.492941 0 0 0 82.393473-82.393473v-623.338945a82.492941 82.492941 0 0 0-82.393473-82.393473z" fill="#444A95" p-id="2672"></path><path d="M500.660536 678.046885v-30.735915c-24.005181-2.818288-43.103225-11.637871-57.924103-26.525061-15.185598-15.517161-24.005181-36.73721-25.795622-62.997022l-0.331563-3.87929h38.826058v3.547727c0.729439 15.517161 5.669732 27.884471 14.489315 36.704054a64.787463 64.787463 0 0 0 30.735915 16.2466v-90.947804a243.135345 243.135345 0 0 1-31.796917-10.245305 93.268748 93.268748 0 0 1-24.701464-14.456159 48.540863 48.540863 0 0 1-14.854034-20.85533 85.675949 85.675949 0 0 1-4.907137-28.945473 79.740966 79.740966 0 0 1 6.366015-31.796917 74.83383 74.83383 0 0 1 16.942883-25.066184 82.095065 82.095065 0 0 1 25.066183-16.976039 93.69978 93.69978 0 0 1 27.552908-7.062298v-24.701463h27.552908v25.066183c19.429608 2.818288 35.311488 10.610025 46.617795 22.944178 12.36731 12.73203 20.85533 30.039632 25.795623 53.050123l1.061002 4.24401h-38.859215l-0.696283-2.818288c-4.24401-21.551612-15.550317-34.615205-34.283642-39.555498v84.051289l19.893796 5.305012c4.940293 1.392566 10.576868 3.514571 17.672322 6.332859a92.240901 92.240901 0 0 1 20.125891 13.428312 77.121616 77.121616 0 0 1 16.578163 21.551613 65.848465 65.848465 0 0 1 6.631266 31.067478 84.681259 84.681259 0 0 1-6.366015 33.554203 78.116306 78.116306 0 0 1-17.672322 25.430902 88.991581 88.991581 0 0 1-26.525062 16.942884 129.309675 129.309675 0 0 1-30.371195 7.427017v30.735915z m27.884471-67.108406a54.542158 54.542158 0 0 0 14.124595-3.315632 43.103225 43.103225 0 0 0 13.793032-8.1233 31.664292 31.664292 0 0 0 8.819583-13.063593 51.889652 51.889652 0 0 0 3.315633-19.429608 41.97591 41.97591 0 0 0-3.315633-16.578163 32.85792 32.85792 0 0 0-8.819583-10.974744 50.828649 50.828649 0 0 0-14.124595-8.1233 128.18236 128.18236 0 0 0-13.793032-4.940293zM500.660536 401.489962a51.922808 51.922808 0 0 0-24.3699 11.306308c-7.427017 6.631265-10.941588 16.578163-10.941588 29.310193a38.892371 38.892371 0 0 0 2.818288 15.185598 24.966714 24.966714 0 0 0 7.75858 9.946898 65.981091 65.981091 0 0 0 13.063593 7.75858 113.891983 113.891983 0 0 0 12.035747 4.24401v-77.751587z" fill="#444A95" p-id="2673"></path><path d="M467.504209 596.813884a66.743686 66.743686 0 0 0 36.704054 18.003886v-98.175884a238.725554 238.725554 0 0 1-33.885766-10.610025 88.494236 88.494236 0 0 1-23.673617-13.759876 44.628416 44.628416 0 0 1-13.759876-19.429607 80.901438 80.901438 0 0 1-4.608729-27.884471A77.652118 77.652118 0 0 1 434.347882 414.454086a70.689289 70.689289 0 0 1 16.246601-24.038337 82.890817 82.890817 0 0 1 24.038337-16.2466 92.008807 92.008807 0 0 1 29.641756-7.062298v-24.3699h20.49061v24.73462q30.172257 3.680352 47.678798 22.247895c12.00259 12.36731 20.12589 29.310193 25.066183 51.193369h-31.432198c-4.940293-24.3699-18.700168-38.826059-41.312783-43.103225v91.113586l22.247895 6.001296a160.775029 160.775029 0 0 1 17.307603 6.366014 81.995596 81.995596 0 0 1 19.064888 12.698874 79.011527 79.011527 0 0 1 15.915037 20.49061 62.997021 62.997021 0 0 1 6.332858 29.310193 82.426629 82.426629 0 0 1-6.001295 32.161637 73.408108 73.408108 0 0 1-16.942883 24.3699 85.278073 85.278073 0 0 1-25.430903 16.2466 118.202305 118.202305 0 0 1-32.4932 7.393861v30.371196h-20.49061v-30.371196c-24.701464-2.453568-44.131071-10.941588-58.951949-25.762466s-22.977335-34.979925-24.73462-60.742391h31.432198c0.62997 16.743945 5.934983 29.807538 15.484004 39.35656z m6.631266-186.835902c-8.1233 7.427017-12.36731 18.003886-12.36731 32.128481a39.787592 39.787592 0 0 0 3.315632 16.578163 28.017096 28.017096 0 0 0 8.819583 11.306308 72.943919 72.943919 0 0 0 13.428313 8.1233c5.305012 2.122005 10.941588 4.24401 16.942883 6.001295v-86.869576a56.067349 56.067349 0 0 0-30.139101 12.732029z m69.628286 201.325217a45.556793 45.556793 0 0 0 15.185598-8.852739 35.245175 35.245175 0 0 0 9.946898-14.456159 52.320684 52.320684 0 0 0 3.514571-20.49061 45.324699 45.324699 0 0 0-3.514571-18.003885 37.10193 37.10193 0 0 0-9.946898-12.36731 56.863101 56.863101 0 0 0-15.185598-8.852739 167.472607 167.472607 0 0 0-18.700168-6.332859v92.837715a75.795363 75.795363 0 0 0 18.700168-3.481414z" fill="#444A95" p-id="2674"></path><path d="M646.183655 709.843803a22.281052 22.281052 0 0 0-28.945473-7.095454 220.754825 220.754825 0 0 1-298.075379-301.258387 21.816863 21.816863 0 0 0-6.631266-28.945473h-0.331563a21.783707 21.783707 0 0 0-25.795622 0.696283h-0.331564L225.197772 407.159694a22.048957 22.048957 0 0 0 21.551613 38.494496l9.184302-5.305012a260.608729 260.608729 0 0 0-8.819583 70.987695 265.615335 265.615335 0 0 0 260.641886 261.934983 262.697578 262.697578 0 0 0 130.669084-32.128481 21.684238 21.684238 0 0 0 7.758581-31.299572z m161.073436-129.309675a22.082114 22.082114 0 0 0-30.039632-8.48802l-9.184303 5.305012a272.113975 272.113975 0 0 0 8.85274-72.413418c-2.122005-143.036394-119.362777-259.216164-261.934983-260.641885a263.228079 263.228079 0 0 0-131.730087 33.554202 21.617925 21.617925 0 0 0-7.062297 31.432198v0.36472a21.75055 21.75055 0 0 0 28.945473 6.631265A220.854293 220.854293 0 0 1 732.754825 500.030566a218.500194 218.500194 0 0 1-26.525062 114.45564 21.850019 21.850019 0 0 0 7.062298 28.945474h0.364719a27.022406 27.022406 0 0 0 8.819583 3.51457 20.987955 20.987955 0 0 0 15.915037-2.088848l60.676078-33.918923a22.778397 22.778397 0 0 0 8.189613-30.371195z" fill="#444A95" p-id="2675"></path></svg>