<?xml version="1.0" standalone="no"?><!DOCTYPE svg PUBLIC "-//W3C//DTD SVG 1.1//EN" "http://www.w3.org/Graphics/SVG/1.1/DTD/svg11.dtd"><svg t="1567505964709" class="icon" viewBox="0 0 1024 1024" version="1.1" xmlns="http://www.w3.org/2000/svg" p-id="2438" xmlns:xlink="http://www.w3.org/1999/xlink" width="200" height="200"><defs><style type="text/css"></style></defs><path d="M84.614946 74.535423m99.535294 0l669.260458 0q99.535293 0 99.535293 99.535293l0 669.260459q0 99.535293-99.535293 99.535293l-669.260458 0q-99.535293 0-99.535294-99.535293l0-669.260459q0-99.535293 99.535294-99.535293Z" fill="#FFFBF9" p-id="2439"></path><path d="M853.410698 953.973838H184.183396a110.775288 110.775288 0 0 1-110.642663-110.67582V174.070716a110.775288 110.775288 0 0 1 110.642663-110.642663h669.227302a110.775288 110.775288 0 0 1 110.642663 110.642663v669.227302a110.775288 110.775288 0 0 1-110.642663 110.67582zM184.183396 85.609636A88.560549 88.560549 0 0 0 95.722316 174.070716v669.227302A88.560549 88.560549 0 0 0 184.183396 931.692786h669.227302a88.560549 88.560549 0 0 0 88.46108-88.494237V174.070716a88.560549 88.560549 0 0 0-88.46108-88.46108z" fill="#F18A29" p-id="2440"></path><path d="M794.856625 381.297759V296.384406a20.987955 20.987955 0 0 0-21.087424-21.186893H263.791737a20.954799 20.954799 0 0 0-21.054268 21.087424V381.297759zM242.737469 444.957907v276.059578a20.921642 20.921642 0 0 0 21.054268 21.054267h509.977464a20.954799 20.954799 0 0 0 21.087424-21.054267V444.957907z m212.200492 212.797306h-106.100246a20.954799 20.954799 0 0 1-21.12058-21.153737 21.186893 21.186893 0 0 1 21.087424-21.087423h106.100246a21.087424 21.087424 0 1 1 0 42.141691z m106.43181-84.979666H348.804559a21.087424 21.087424 0 1 1 0-42.141691h212.498899a21.087424 21.087424 0 0 1 0 42.141691z m127.486077 0h-42.572724a21.087424 21.087424 0 1 1 0-42.141691h42.506411a21.087424 21.087424 0 0 1 0 42.141691z" fill="#F18A29" p-id="2441"></path></svg>