<?xml version="1.0" standalone="no"?><!DOCTYPE svg PUBLIC "-//W3C//DTD SVG 1.1//EN" "http://www.w3.org/Graphics/SVG/1.1/DTD/svg11.dtd"><svg t="1567502984518" class="icon" viewBox="0 0 1024 1024" version="1.1" xmlns="http://www.w3.org/2000/svg" p-id="2101" xmlns:xlink="http://www.w3.org/1999/xlink" width="200" height="200"><defs><style type="text/css"></style></defs><path d="M826.089885 105.868152H198.374304a92.506152 92.506152 0 0 0-92.506152 92.506152v627.715581a92.041963 92.041963 0 0 0 92.07512 92.041963h628.146613a92.041963 92.041963 0 0 0 92.041963-92.041963V197.943272a92.041963 92.041963 0 0 0-92.041963-92.07512z" fill="#F8FBF8" p-id="2102"></path><path d="M825.028882 928.377153H198.937961a103.480896 103.480896 0 0 1-103.44774-103.381427V198.937961A103.480896 103.480896 0 0 1 198.937961 95.490221h626.090921A103.480896 103.480896 0 0 1 928.377153 198.937961v626.090921A103.480896 103.480896 0 0 1 825.028882 928.377153zM198.937961 116.246082A82.890817 82.890817 0 0 0 116.246082 198.937961v626.090921A82.890817 82.890817 0 0 0 198.937961 907.753918h626.090921a82.890817 82.890817 0 0 0 82.725036-82.725036V198.937961a82.890817 82.890817 0 0 0-82.725036-82.725035z" fill="#6ABE87" p-id="2103"></path><path d="M820.420153 565.34853l-52.287528-116.345551a23.209429 23.209429 0 0 0-20.12589-11.339464h-87.333765l23.209429-93.235591a23.209429 23.209429 0 0 0-23.47468-23.209429h-273.539697a23.010491 23.010491 0 0 0-23.209429 23.209429l-104.807149 326.490351a23.010491 23.010491 0 0 0 23.209429 23.209429h34.979925a93.235591 93.235591 0 0 0 186.471182 0h75.961145a93.235591 93.235591 0 0 0 186.471183 0h35.079394a23.010491 23.010491 0 0 0 23.209428-23.209429v-93.235591a28.182878 28.182878 0 0 0-3.812977-12.334154z m-410.508484 175.2975a46.617796 46.617796 0 1 1 46.617796-46.617795 46.650952 46.650952 0 0 1-46.617796 46.617795z m324.932004-256.596814l41.810128 99.203731h-150.9276l29.144412-99.170574z m-62.599145 256.596814a46.650952 46.650952 0 0 1-46.617796-46.617795v-0.36472a46.617796 46.617796 0 1 1 46.617796 46.982515z" fill="#6ABE87" p-id="2104"></path><path d="M189.090532 321.450589m4.144541 0l207.790701 0q4.144541 0 4.144541 4.144541l0 39.820749q0 4.144541-4.144541 4.144541l-207.790701 0q-4.144541 0-4.144541-4.144541l0-39.820749q0-4.144541 4.144541-4.144541Z" fill="#6ABE87" p-id="2105"></path><path d="M224.534646 408.850667m4.144541 0l200.595777 0q4.144541 0 4.144541 4.144541l0 39.820748q0 4.144541-4.144541 4.144541l-200.595777 0q-4.144541 0-4.144541-4.144541l0-39.820748q0-4.144541 4.144541-4.144541Z" fill="#6ABE87" p-id="2106"></path><path d="M263.990675 496.283901m4.144541 0l178.281569 0q4.144541 0 4.144541 4.144541l0 39.820749q0 4.144541-4.144541 4.14454l-178.281569 0q-4.144541 0-4.144541-4.14454l0-39.820749q0-4.144541 4.144541-4.144541Z" fill="#6ABE87" p-id="2107"></path></svg>