<?xml version="1.0" standalone="no"?><!DOCTYPE svg PUBLIC "-//W3C//DTD SVG 1.1//EN" "http://www.w3.org/Graphics/SVG/1.1/DTD/svg11.dtd"><svg t="1567505969395" class="icon" viewBox="0 0 1024 1024" version="1.1" xmlns="http://www.w3.org/2000/svg" p-id="2554" xmlns:xlink="http://www.w3.org/1999/xlink" width="200" height="200"><defs><style type="text/css"></style></defs><path d="M88.560549 85.244916m98.441135 0l650.029789 0q98.441135 0 98.441134 98.441135l0 650.029789q0 98.441135-98.441134 98.441134l-650.029789 0q-98.441135 0-98.441135-98.441134l0-650.029789q0-98.441135 98.441135-98.441135Z" fill="#F8FCFE" p-id="2555"></path><path d="M838.357726 942.965937H185.675431a108.023313 108.023313 0 0 1-107.923844-107.923844V182.359798A108.023313 108.023313 0 0 1 185.675431 74.435954h652.682295A108.023313 108.023313 0 0 1 946.28157 182.359798v652.682295a108.023313 108.023313 0 0 1-107.923844 107.923844zM185.675431 96.153348a86.20645 86.20645 0 0 0-86.20645 86.20645v652.682295a86.372232 86.372232 0 0 0 86.20645 86.20645h652.682295a86.372232 86.372232 0 0 0 86.20645-86.20645V182.359798a86.20645 86.20645 0 0 0-86.20645-86.20645z" fill="#48AAE1" p-id="2556"></path><path d="M643.232742 791.607305c-38.527652 0-58.58723-12.267841-76.259552-23.209429-15.550317-9.714804-28.149722-17.141821-55.006346-17.141821s-39.456029 7.427017-55.006347 17.141821c-17.804948 11.007901-37.831369 23.209429-76.259552 23.209429s-58.554073-12.267841-76.259551-23.209429c-12.00259-7.460174-22.015801-13.594094-37.864526-15.848724a20.291672 20.291672 0 0 1 6.133921-40.119156c23.938868 3.87929 39.157622 12.930967 53.050123 21.352675 15.517161 9.681647 27.818158 17.141821 54.97319 17.141821s39.489185-7.460174 55.006346-17.141821c17.804948-11.007901 37.864525-23.209429 76.259552-23.209429s58.554073 12.300997 76.259552 23.209429c15.517161 9.681647 28.149722 17.141821 55.006346 17.141821s39.456029-7.460174 54.97319-17.141821c13.594094-8.421707 28.812848-17.804948 53.050123-21.352675a20.092734 20.092734 0 0 1 23.209429 20.059578 20.49061 20.49061 0 0 1-17.141821 19.893796c-15.848724 2.586193-25.895091 8.720114-37.864525 15.848724-17.572853 11.10737-37.632431 23.37521-76.259552 23.375211z m90.914648-345.853646V326.689289a19.893796 19.893796 0 0 0-20.059578-19.893796H633.285844v82.492941z m-222.14739-124.137288l80.569874 44.993136V245.821008a19.893796 19.893796 0 0 0-20.059577-19.893796h-121.319001a19.893796 19.893796 0 0 0-20.059577 19.893796v121.319z m-121.319 67.937314v-83.222381h-80.901438a19.893796 19.893796 0 0 0-20.059578 19.893796v119.362777z m373.671804 121.650563l-232.293226-130.70224v208.884859a19.893796 19.893796 0 0 1-20.059578 19.893796 20.159047 20.159047 0 0 1-19.893796-19.893796v-208.884859l-232.459008 130.602771a20.391141 20.391141 0 0 0-8.720114 25.563528l65.649527 151.424945c2.917757 1.62466 5.835514 3.547727 8.753271 5.172387 15.517161 9.714804 27.818158 17.141821 55.006346 17.141821s39.456029-7.427017 54.97319-17.141821c17.804948-11.007901 37.864525-23.209429 76.259552-23.209429s58.554073 12.300997 76.259552 23.209429c15.517161 9.714804 28.149722 17.141821 55.006346 17.141821s39.456029-7.427017 55.006346-17.141821c2.8846-1.62466 5.802357-3.547727 8.720114-5.172387l65.981091-151.424945a19.23067 19.23067 0 0 0-8.189613-25.563528z" fill="#48AAE1" p-id="2557"></path></svg>