<?xml version="1.0" standalone="no"?><!DOCTYPE svg PUBLIC "-//W3C//DTD SVG 1.1//EN" "http://www.w3.org/Graphics/SVG/1.1/DTD/svg11.dtd"><svg t="1567505982135" class="icon" viewBox="0 0 1024 1024" version="1.1" xmlns="http://www.w3.org/2000/svg" p-id="2903" xmlns:xlink="http://www.w3.org/1999/xlink" width="200" height="200"><defs><style type="text/css"></style></defs><path d="M512 512m-434.28157 0a434.28157 434.28157 0 1 0 868.56314 0 434.28157 434.28157 0 1 0-868.56314 0Z" fill="#6ABE87" p-id="2904"></path><path d="M770.785131 401.755213L524.035747 225.463023a20.092734 20.092734 0 0 0-23.73993 0l-247.080948 176.29219a10.311618 10.311618 0 0 0 6.200233 18.534387h49.402927v305.038207a20.059578 20.059578 0 0 0 20.159047 20.159047h365.747442a19.893796 19.893796 0 0 0 20.12589-20.159047v-305.038207h49.436083a10.311618 10.311618 0 0 0 6.49864-18.534387z m-197.644864 262.332858H450.926046a20.159047 20.159047 0 1 1 0-40.284937h121.915814a20.159047 20.159047 0 0 1 0.331563 40.284937z m0-81.266157H450.926046a19.893796 19.893796 0 0 1-20.159047-20.159046 20.258516 20.258516 0 0 1 20.159047-20.159047h121.915814a20.159047 20.159047 0 0 1 0.331563 40.318093z m0-81.266157H450.926046a20.159047 20.159047 0 1 1 0-40.318093h121.915814a20.159047 20.159047 0 0 1 0.331563 40.318093z" fill="#FFFFFF" p-id="2905"></path></svg>