<?xml version="1.0" standalone="no"?><!DOCTYPE svg PUBLIC "-//W3C//DTD SVG 1.1//EN" "http://www.w3.org/Graphics/SVG/1.1/DTD/svg11.dtd"><svg t="1567505990793" class="icon" viewBox="0 0 1024 1024" version="1.1" xmlns="http://www.w3.org/2000/svg" p-id="3134" xmlns:xlink="http://www.w3.org/1999/xlink" width="200" height="200"><defs><style type="text/css"></style></defs><path d="M512 514.188318m-413.923585 0a413.923585 413.923585 0 1 0 827.84717 0 413.923585 413.923585 0 1 0-827.84717 0Z" fill="#DBDBDB" p-id="3135"></path><path d="M512 941.639684a427.517679 427.517679 0 1 1 427.517679-427.451366A427.981868 427.981868 0 0 1 512 941.639684z m0-827.880326a400.362647 400.362647 0 1 0 400.362647 400.42896A400.826836 400.826836 0 0 0 512 113.82567z" fill="#BBBABA" p-id="3136"></path><path d="M772.542417 404.772439L524.102059 227.452403a20.192203 20.192203 0 0 0-23.872555 0l-248.672452 177.320036a10.344774 10.344774 0 0 0 6.200233 18.633856h49.734491v306.861805a20.159047 20.159047 0 0 0 20.291672 20.258516h368.035228a20.192203 20.192203 0 0 0 20.291672-20.258516V423.406295h49.734491a10.37793 10.37793 0 0 0 6.697578-18.633856z m-198.937962 263.990675h-123.009972a20.159047 20.159047 0 0 1-20.258516-20.291672 20.391141 20.391141 0 0 1 20.258516-20.291673h122.678409a20.291672 20.291672 0 0 1 0.331563 40.583345z m0-81.896128h-123.009972a20.159047 20.159047 0 0 1-20.258516-20.258516 20.357985 20.357985 0 0 1 20.258516-20.291672h122.678409A20.291672 20.291672 0 0 1 573.604455 586.866986z m0-81.763502h-123.009972a20.192203 20.192203 0 0 1-20.258516-20.291672 20.391141 20.391141 0 0 1 20.258516-20.291672h122.678409a20.291672 20.291672 0 0 1 0.331563 40.583344z" fill="#040000" p-id="3137"></path></svg>